<?xml version="1.0" standalone="no"?>
<!DOCTYPE svg PUBLIC "-//W3C//DTD SVG 20010904//EN"
 "http://www.w3.org/TR/2001/REC-SVG-20010904/DTD/svg10.dtd">
<svg version="1.0" xmlns="http://www.w3.org/2000/svg"
 width="565.000000pt" height="222.000000pt" viewBox="0 0 565.000000 222.000000"
 preserveAspectRatio="xMidYMid meet">

<g transform="translate(0.000000,222.000000) scale(0.100000,-0.100000)"
fill="#000000" stroke="none">
<path d="M4285 1900 c-4 -6 0 -19 9 -29 9 -10 16 -30 16 -44 0 -20 5 -27 20
-27 13 0 20 7 20 19 0 53 27 69 32 19 3 -33 4 -33 58 -34 32 -1 58 3 62 10 9
14 10 59 2 80 -7 18 -39 22 -49 6 -4 -7 -11 -7 -18 -2 -18 13 -144 15 -152 2z"/>
<path d="M1609 1802 c-8 -3 -65 -55 -126 -116 l-113 -111 0 -108 0 -109 118
-114 117 -113 88 -1 c73 0 87 3 87 16 0 8 -49 66 -108 127 -140 145 -172 180
-172 191 0 13 43 62 171 193 66 66 119 126 119 131 0 6 -9 13 -19 17 -21 6
-139 4 -162 -3z"/>
<path d="M2164 1792 c-138 -49 -234 -198 -221 -343 10 -117 84 -222 195 -276
122 -60 293 -27 382 75 59 67 83 124 88 211 3 62 0 87 -18 135 -28 72 -90 142
-162 181 -69 38 -186 45 -264 17z"/>
<path d="M1155 1788 c-3 -7 -4 -157 -3 -333 l3 -320 68 -3 c38 -2 74 2 81 7
10 8 12 88 12 333 l-1 323 -78 3 c-56 2 -79 -1 -82 -10z"/>
<path d="M2866 1784 c-11 -30 -7 -142 7 -151 6 -4 62 -6 123 -4 128 4 154 -5
154 -49 0 -16 -6 -32 -12 -36 -7 -5 -67 -7 -135 -6 -81 2 -124 -1 -128 -9 -9
-14 -18 -356 -10 -386 5 -21 11 -23 85 -23 57 0 80 4 81 13 0 6 0 56 -1 110
-1 64 3 103 10 113 8 9 32 14 72 14 69 0 113 16 150 56 81 87 80 232 -3 314
-52 52 -87 60 -250 60 -116 0 -138 -2 -143 -16z"/>
<path d="M3722 1778 c-7 -7 -12 -16 -12 -21 0 -9 -24 -72 -152 -396 -51 -128
-85 -228 -80 -233 5 -5 42 -8 82 -6 l74 3 32 75 c67 159 154 387 154 402 0 16
-76 188 -83 188 -1 0 -8 -5 -15 -12z"/>
<path d="M3926 1749 c-13 -28 -55 -138 -153 -394 -15 -40 -15 -41 23 -120 22
-44 46 -81 54 -83 11 -2 23 21 44 80 29 83 42 108 56 108 3 0 24 -45 44 -100
21 -54 44 -104 51 -110 8 -6 44 -10 87 -8 69 3 73 4 71 25 -2 13 -11 42 -21
65 -44 99 -64 149 -108 263 -127 334 -124 328 -148 274z"/>
<path d="M1168 1042 c-25 -3 -28 -7 -28 -43 0 -35 3 -39 25 -39 14 0 707 0
1540 0 833 0 1522 0 1530 0 11 0 15 11 15 40 l0 40 -1527 2 c-841 2 -1540 2
-1555 0z"/>
<path d="M1140 615 c0 -279 3 -297 58 -353 53 -54 84 -64 197 -64 56 0 108 -3
115 -8 9 -6 11 -22 7 -57 -3 -27 -2 -55 2 -61 5 -9 33 -12 92 -10 l84 3 3 125
c4 157 1 168 -41 172 l-32 3 -3 245 c-2 180 -6 246 -15 252 -6 4 -42 8 -78 8
-55 0 -68 -3 -74 -17 -3 -10 -6 -117 -5 -238 1 -121 1 -228 1 -237 -1 -15 -11
-18 -54 -18 -95 0 -92 -7 -89 259 3 266 9 251 -102 251 l-66 0 0 -255z"/>
<path d="M1824 856 c-3 -7 -4 -42 -2 -77 l3 -64 225 0 225 0 3 78 3 77 -226 0
c-181 0 -227 -3 -231 -14z"/>
<path d="M2434 858 c-5 -7 -9 -159 -9 -338 l0 -325 73 -5 c40 -3 77 -3 82 -2
6 2 10 58 10 138 l0 133 143 3 142 3 0 80 0 80 -140 5 -140 5 -3 110 c-2 72
-7 112 -15 117 -20 13 -134 9 -143 -4z"/>
<path d="M2972 857 c-9 -11 -12 -94 -10 -338 l3 -324 82 -3 83 -3 2 253 3 253
167 3 167 2 16 -24 c14 -20 16 -58 15 -243 -1 -120 -1 -224 -1 -230 1 -9 24
-13 81 -13 57 0 80 4 80 13 1 6 0 122 0 256 -1 267 -4 282 -66 345 -59 58 -67
60 -349 64 -221 3 -263 2 -273 -11z"/>
<path d="M3801 856 c-7 -9 -11 -41 -9 -83 l3 -68 130 -5 c72 -3 136 -9 143
-13 16 -11 16 -52 -1 -66 -8 -6 -67 -12 -135 -14 -67 -2 -127 -8 -132 -13 -7
-7 -9 -84 -8 -205 l3 -194 82 -3 82 -3 3 123 3 123 76 5 c82 6 118 23 162 76
36 42 47 76 47 137 -1 95 -64 183 -147 206 -59 17 -288 14 -302 -3z"/>
<path d="M1831 626 c-8 -9 -11 -74 -9 -217 l3 -204 225 0 225 0 0 80 0 80
-140 5 -140 5 0 45 0 45 140 5 140 5 0 80 0 80 -216 3 c-175 2 -218 0 -228
-12z"/>
<path d="M3234 617 c-2 -7 -3 -105 -2 -217 l3 -205 80 0 80 0 3 198 c1 125 -1
205 -8 217 -9 17 -21 20 -81 20 -47 0 -71 -4 -75 -13z"/>
</g>
</svg>
