<?xml version="1.0" standalone="no"?>
<!DOCTYPE svg PUBLIC "-//W3C//DTD SVG 20010904//EN"
 "http://www.w3.org/TR/2001/REC-SVG-20010904/DTD/svg10.dtd">
<svg version="1.0" xmlns="http://www.w3.org/2000/svg"
 width="626.000000pt" height="626.000000pt" viewBox="0 0 626.000000 626.000000"
 preserveAspectRatio="xMidYMid meet">

<g transform="translate(0.000000,626.000000) scale(0.100000,-0.100000)"
fill="#000000" stroke="none">
<path d="M3755 4823 c-11 -3 -78 -24 -150 -48 -108 -36 -151 -45 -255 -54
-146 -12 -179 -20 -242 -60 -86 -54 -128 -136 -128 -248 0 -73 -16 -89 -53
-56 -44 41 -65 46 -164 38 l-95 -7 -52 36 c-72 50 -104 55 -144 22 -34 -29
-56 -28 -122 5 -32 16 -41 16 -100 3 -76 -16 -84 -15 -204 36 -114 49 -310
106 -430 125 -116 19 -214 19 -312 0 -108 -21 -159 -47 -190 -101 -34 -57 -50
-65 -103 -52 -36 9 -45 8 -59 -6 -30 -30 -19 -109 28 -201 50 -100 69 -155 79
-225 12 -82 1 -102 -87 -157 -93 -57 -207 -169 -244 -239 -39 -73 -58 -156
-58 -257 l0 -89 -46 -51 c-25 -28 -52 -64 -60 -80 -22 -41 -44 -157 -37 -187
9 -38 48 -91 90 -125 36 -28 44 -30 153 -35 104 -5 119 -8 159 -34 58 -37 104
-42 189 -21 78 19 86 17 157 -40 22 -18 48 -35 58 -38 25 -9 77 15 111 52 27
31 31 31 86 25 82 -9 121 7 209 89 46 43 101 82 141 101 59 28 74 31 165 31
l100 0 106 -58 c59 -32 144 -71 190 -88 123 -45 132 -55 148 -173 12 -86 72
-215 175 -378 30 -47 58 -97 61 -110 15 -60 -81 -68 -196 -18 -57 25 -76 30
-94 22 -29 -13 -37 -58 -19 -101 16 -39 18 -87 4 -96 -20 -13 -220 -266 -220
-279 0 -37 125 -93 180 -81 17 4 58 18 90 31 77 31 93 30 146 -8 42 -30 46
-31 61 -15 15 15 16 23 5 62 -27 102 -12 125 104 166 97 34 124 72 163 225 22
83 80 125 195 144 103 16 223 -9 250 -52 17 -28 -1 -32 -59 -13 -53 18 -55 18
-75 0 -29 -26 -25 -42 18 -64 21 -11 44 -31 52 -46 17 -31 79 -76 128 -93 22
-8 81 -9 175 -5 130 5 144 4 164 -13 46 -40 -20 -94 -189 -155 -97 -35 -129
-60 -112 -87 14 -21 48 -39 100 -52 82 -20 184 -111 186 -166 0 -11 -7 -45
-15 -76 -28 -103 8 -158 102 -158 56 0 78 10 157 74 50 41 87 62 135 76 85 26
128 55 157 108 27 48 51 53 117 23 62 -28 92 -32 135 -21 69 18 93 48 98 118
4 55 2 63 -21 86 -36 36 -74 33 -137 -10 -72 -50 -128 -74 -172 -74 -48 0 -73
24 -82 80 -9 60 -30 95 -71 120 -68 42 -81 94 -26 106 63 13 88 32 117 91 24
47 38 63 78 84 26 15 72 52 102 83 33 34 62 56 76 57 13 0 64 1 113 2 88 2 92
3 185 53 99 54 156 75 253 94 81 16 97 35 97 114 0 76 21 110 74 120 33 6 42
14 96 86 17 23 25 25 116 28 106 3 141 15 176 63 35 47 38 91 12 166 -13 37
-24 71 -24 76 0 4 28 7 61 7 l62 0 -7 108 c-4 59 -9 141 -10 183 -2 66 -6 84
-32 125 -36 60 -91 102 -175 137 -35 14 -104 42 -154 63 -49 20 -116 43 -147
52 -52 13 -62 13 -109 -2 -69 -23 -90 -9 -120 81 -39 119 -88 139 -199 83 -73
-37 -103 -37 -211 -4 -67 20 -96 24 -146 19 l-62 -5 -6 37 c-4 21 -13 56 -21
78 -8 23 -14 63 -14 90 0 65 -31 128 -78 157 -29 18 -52 22 -117 24 -118 2
-115 -1 -114 113 3 180 4 177 -60 281 -79 128 -115 154 -219 157 -42 1 -86 -1
-97 -4z m173 -37 c38 -20 74 -61 121 -139 47 -77 51 -89 19 -60 -58 53 -138
74 -274 74 -161 0 -314 -36 -459 -108 -90 -44 -119 -73 -160 -154 -57 -111
-144 -169 -282 -184 -87 -10 -554 84 -873 175 -366 105 -547 123 -710 69 -129
-42 -245 -119 -270 -179 -7 -16 -16 -30 -20 -30 -15 0 -50 91 -53 138 l-2 47
62 -3 c67 -4 73 -1 116 67 30 48 71 69 169 88 189 36 473 -15 741 -133 83 -36
157 -44 226 -24 26 7 41 6 65 -7 70 -36 123 -35 152 5 15 21 59 8 101 -29 43
-37 71 -43 146 -34 94 12 115 8 160 -25 47 -34 63 -37 89 -13 14 13 18 31 18
88 0 56 5 82 26 123 51 103 142 145 334 157 87 6 130 15 255 56 162 52 250 62
303 35z m416 -559 c38 -25 66 -75 66 -119 l0 -37 -92 40 c-104 46 -139 68
-167 108 l-21 29 93 -2 c71 -1 100 -6 121 -19z m-3189 -376 c12 -71 -27 -129
-114 -168 -118 -53 -246 -165 -307 -268 -14 -25 -28 -45 -31 -45 -3 0 -3 35 0
77 11 150 107 285 284 400 85 54 103 75 103 116 0 13 3 27 7 30 8 9 50 -93 58
-142z m3883 9 c10 -11 26 -46 36 -77 10 -32 23 -64 30 -72 9 -12 5 -13 -29 -8
-52 9 -254 33 -378 46 -61 6 -110 17 -129 28 -35 20 -75 69 -65 79 18 19 98
14 181 -10 113 -33 147 -33 221 3 72 35 108 38 133 11z m324 -184 c324 -123
370 -147 413 -220 28 -48 43 -106 27 -106 -6 0 -13 9 -17 20 -3 11 -34 45 -68
75 -76 69 -219 143 -360 186 -56 17 -113 35 -127 39 l-25 8 25 10 c38 16 64
14 132 -12z m-4741 -552 c-6 -32 -11 -61 -11 -66 0 -4 1144 -8 2543 -8 l2542
0 23 -69 c34 -106 27 -152 -34 -192 -23 -15 -47 -19 -114 -19 -103 -1 -134
-13 -163 -64 -18 -31 -31 -42 -68 -52 -67 -20 -83 -42 -87 -127 -2 -40 -9 -77
-14 -84 -5 -7 -35 -17 -66 -23 -96 -19 -153 -40 -252 -93 l-95 -51 -105 -1
c-58 -1 -114 -6 -125 -12 -11 -6 -41 -34 -67 -61 -25 -28 -64 -60 -86 -71 -42
-21 -92 -73 -92 -96 0 -23 -57 -75 -83 -75 -38 0 -77 -36 -77 -71 0 -31 16
-50 93 -111 28 -23 36 -38 46 -86 13 -69 34 -92 89 -99 52 -7 110 13 191 66
96 62 131 52 131 -36 0 -48 -25 -78 -76 -92 -30 -8 -49 -6 -110 15 -99 34
-122 30 -159 -28 -34 -52 -73 -78 -157 -102 -39 -11 -76 -32 -116 -65 -78 -65
-115 -83 -164 -79 -31 2 -46 10 -61 30 l-20 27 21 72 c20 66 20 73 6 107 -31
75 -111 136 -216 166 -95 27 -90 33 78 96 169 63 231 150 141 196 -26 14 -55
16 -171 12 -176 -7 -204 1 -278 81 -29 32 -60 60 -68 63 -8 3 -12 8 -9 12 3 3
26 -1 52 -10 69 -23 91 -17 95 27 3 31 -2 40 -25 57 -91 63 -275 65 -388 4
-56 -31 -88 -78 -105 -156 -25 -119 -57 -153 -168 -187 -24 -7 -57 -25 -73
-40 -24 -22 -29 -35 -29 -72 0 -25 5 -58 10 -73 15 -38 6 -41 -30 -10 -41 34
-82 34 -163 0 -77 -32 -129 -34 -184 -5 -24 12 -43 23 -43 26 0 7 209 263 220
270 15 9 12 70 -6 116 -15 36 -15 42 -1 56 14 14 18 14 49 -2 156 -80 292 -54
258 50 -6 19 -33 67 -59 107 -27 40 -74 124 -105 186 -44 88 -58 128 -67 189
-17 126 -32 143 -159 188 -41 15 -127 54 -190 88 -109 57 -120 61 -197 65
-141 8 -236 -29 -345 -134 -85 -82 -120 -97 -203 -89 l-63 7 -45 -41 c-24 -23
-53 -41 -65 -41 -11 0 -42 18 -68 40 -61 50 -98 57 -180 35 -75 -20 -108 -16
-166 22 -37 25 -52 28 -152 33 -119 6 -134 10 -183 62 -56 58 -60 91 -26 203
15 47 41 90 50 81 3 -2 0 -30 -6 -62z"/>
<path d="M3530 2770 c0 -127 2 -150 15 -150 12 0 15 14 15 68 0 76 17 112 54
112 36 0 45 -19 48 -100 2 -62 6 -75 21 -78 15 -3 17 6 17 76 0 65 -4 84 -21
106 -24 30 -63 34 -97 10 l-22 -15 0 60 c0 48 -3 61 -15 61 -13 0 -15 -23 -15
-150z"/>
<path d="M3779 2801 c-64 -64 -22 -181 66 -181 74 0 119 65 96 141 -14 47 -44
69 -94 69 -29 0 -46 -7 -68 -29z m115 -23 c29 -41 17 -106 -24 -128 -43 -23
-97 36 -83 92 14 58 77 79 107 36z"/>
<path d="M4000 2725 c0 -87 3 -105 15 -105 12 0 15 15 15 73 0 77 15 107 52
107 27 0 36 -23 40 -100 2 -62 6 -75 21 -78 15 -3 17 5 17 72 0 78 13 106 49
106 32 0 41 -22 41 -102 0 -73 1 -78 21 -78 20 0 21 4 18 84 -3 65 -8 89 -23
105 -23 25 -63 27 -94 5 -20 -14 -24 -14 -38 0 -20 20 -68 20 -85 0 -11 -14
-13 -14 -21 0 -20 36 -28 11 -28 -89z"/>
<path d="M4383 2818 c-44 -21 -61 -115 -29 -163 24 -36 133 -49 144 -17 2 8
-11 12 -47 12 -40 0 -53 4 -65 22 -29 41 -21 48 54 48 l70 0 0 30 c0 61 -67
97 -127 68z m77 -28 c36 -36 26 -50 -35 -50 -63 0 -72 15 -29 49 33 26 39 26
64 1z"/>
<path d="M4554 2655 c-4 -9 -2 -21 4 -27 15 -15 44 -1 40 19 -4 23 -36 29 -44
8z"/>
</g>
</svg>
